<?xml version="1.0" encoding="utf-8"?>
<!-- Generator: Adobe Illustrator 27.0.0, SVG Export Plug-In . SVG Version: 6.00 Build 0)  -->
<svg version="1.1" baseProfile="tiny" id="Laag_1" xmlns="http://www.w3.org/2000/svg" xmlns:xlink="http://www.w3.org/1999/xlink"
	 x="0px" y="0px" viewBox="0 0 453 226" overflow="visible" xml:space="preserve">
<rect fill="#CCD9D0" width="453" height="226"/>
<rect x="33" y="68" fill="#B5C9BD" width="99" height="158"/>
<rect x="46" y="86" fill="#CCD9D0" width="24" height="24"/>
<rect x="94" y="86" fill="#CCD9D0" width="24" height="24"/>
<rect x="46" y="126" fill="#CCD9D0" width="24" height="24"/>
<rect x="94" y="126" fill="#CCD9D0" width="24" height="24"/>
<rect x="46" y="166" fill="#CCD9D0" width="24" height="24"/>
<rect x="94" y="166" fill="#CCD9D0" width="24" height="24"/>
<rect x="46" y="206" fill="#CCD9D0" width="24" height="24"/>
<rect x="94" y="206" fill="#CCD9D0" width="24" height="24"/>
<rect x="132" y="98" fill="#B5C9BD" width="99" height="158"/>
<rect x="145" y="116" fill="#CCD9D0" width="24" height="24"/>
<rect x="193" y="116" fill="#CCD9D0" width="24" height="24"/>
<rect x="145" y="156" fill="#CCD9D0" width="24" height="24"/>
<rect x="193" y="156" fill="#CCD9D0" width="24" height="24"/>
<rect x="145" y="196" fill="#CCD9D0" width="24" height="24"/>
<rect x="193" y="196" fill="#CCD9D0" width="24" height="24"/>
<rect x="231" y="72" fill="#B5C9BD" width="99" height="158"/>
<rect x="244" y="90" fill="#CCD9D0" width="24" height="24"/>
<rect x="292" y="90" fill="#CCD9D0" width="24" height="24"/>
<rect x="244" y="130" fill="#CCD9D0" width="24" height="24"/>
<rect x="292" y="130" fill="#CCD9D0" width="24" height="24"/>
<rect x="244" y="170" fill="#CCD9D0" width="24" height="24"/>
<rect x="292" y="170" fill="#CCD9D0" width="24" height="24"/>
<rect x="244" y="210" fill="#CCD9D0" width="24" height="24"/>
<rect x="292" y="210" fill="#CCD9D0" width="24" height="24"/>
<rect x="330" y="52" fill="#B5C9BD" width="99" height="177.5"/>
<rect x="343" y="72.2" fill="#CCD9D0" width="24" height="27"/>
<rect x="391" y="72.2" fill="#CCD9D0" width="24" height="27"/>
<rect x="343" y="117.2" fill="#CCD9D0" width="24" height="27"/>
<rect x="391" y="117.2" fill="#CCD9D0" width="24" height="27"/>
<rect x="343" y="162.1" fill="#CCD9D0" width="24" height="27"/>
<rect x="391" y="162.1" fill="#CCD9D0" width="24" height="27"/>
<rect x="343" y="207" fill="#CCD9D0" width="24" height="27"/>
<rect x="391" y="207" fill="#CCD9D0" width="24" height="27"/>
<rect x="-66" y="125" fill="#B5C9BD" width="99" height="158"/>
<rect x="-5" y="143" fill="#CCD9D0" width="24" height="24"/>
<rect x="-5" y="183" fill="#CCD9D0" width="24" height="24"/>
<rect x="-5" y="223" fill="#CCD9D0" width="24" height="24"/>
<rect x="429" y="108" fill="#B5C9BD" width="99" height="158"/>
<rect x="442" y="126" fill="#CCD9D0" width="24" height="24"/>
<rect x="442" y="166" fill="#CCD9D0" width="24" height="24"/>
<rect x="442" y="206" fill="#CCD9D0" width="24" height="24"/>
<g>
	<g>
		<path d="M122.6,123.5v-25h7.3c2.5,0,4.6,0.4,6.3,1.1c1.7,0.7,3.1,1.7,4.2,3c1.1,1.2,1.8,2.6,2.3,4.2s0.7,3.1,0.7,4.7
			c0,1.9-0.3,3.5-1,5s-1.5,2.8-2.7,3.8c-1.1,1.1-2.4,1.9-3.9,2.4c-1.5,0.6-3.1,0.8-4.7,0.8H122.6z M127.4,118.7h2.9
			c1.2,0,2.3-0.2,3.3-0.5c1-0.3,1.9-0.8,2.6-1.4c0.7-0.6,1.3-1.4,1.7-2.4c0.4-1,0.6-2.1,0.6-3.3c0-1.6-0.3-3-0.8-4s-1.2-1.8-1.9-2.4
			c-0.8-0.6-1.5-1-2.3-1.2c-0.8-0.2-1.5-0.3-2-0.3h-3.9V118.7z"/>
		<path d="M155.7,98.5c1.5,0,2.9,0.2,4.1,0.6c1.2,0.4,2.2,1,3,1.7s1.4,1.6,1.8,2.7c0.4,1,0.6,2.2,0.6,3.5c0,1-0.2,2-0.4,3.1
			c-0.3,1-0.8,2-1.5,2.8c-0.7,0.8-1.6,1.5-2.7,2c-1.1,0.5-2.5,0.8-4.1,0.8h-3.5v8h-4.8v-25H155.7z M156.5,110.8
			c0.7,0,1.3-0.1,1.8-0.4c0.5-0.2,0.9-0.6,1.1-1c0.3-0.4,0.5-0.8,0.6-1.2c0.1-0.4,0.2-0.8,0.2-1.2c0-0.3,0-0.6-0.1-1
			c-0.1-0.4-0.2-0.8-0.5-1.3s-0.6-0.8-1.1-1.1c-0.5-0.3-1.2-0.4-2-0.4h-3.5v7.5H156.5z M161,113.9l6.1,9.7h-5.6l-6.2-9.5L161,113.9z
			"/>
		<path d="M171.1,98.5h16.7v4.8h-11.9v5.3h10.5v4.8h-10.5v5.4h12.4v4.8h-17.2V98.5z"/>
		<path d="M190.5,123.5l11.1-26h0.3l11.1,26h-5.6l-7.1-18.3l3.5-2.4l-8.5,20.7H190.5z M198.1,114.5h7.4l1.7,4.1h-10.6L198.1,114.5z"
			/>
		<path d="M216.4,123.5v-26h0l13.6,19.7l-2.1-0.5l13.6-19.2h0.1v26h-4.8v-14.9l0.3,2.5l-8.3,12h-0.1l-8.5-12l0.8-2.3v14.7H216.4z"/>
		<path d="M277.2,121.4c-0.3,0.2-0.8,0.5-1.5,0.9c-0.7,0.4-1.6,0.7-2.6,1c-1,0.3-2.2,0.4-3.5,0.4c-1.9,0-3.7-0.4-5.2-1.1
			c-1.5-0.7-2.8-1.6-3.9-2.7c-1.1-1.2-1.9-2.5-2.4-4s-0.8-3.1-0.8-4.8c0-1.9,0.3-3.6,0.8-5.2c0.6-1.6,1.4-3,2.4-4.1
			c1.1-1.2,2.3-2.1,3.8-2.7s3.1-1,4.9-1c1.6,0,3.1,0.2,4.4,0.7c1.3,0.5,2.3,0.9,3.1,1.5l-1.9,4.7c-0.6-0.4-1.3-0.9-2.2-1.3
			c-0.9-0.5-2-0.7-3.2-0.7c-0.9,0-1.8,0.2-2.7,0.6c-0.9,0.4-1.6,1-2.3,1.7s-1.2,1.6-1.5,2.5c-0.4,1-0.6,2-0.6,3.1
			c0,1.2,0.2,2.3,0.5,3.3c0.3,1,0.8,1.9,1.5,2.6c0.6,0.7,1.4,1.3,2.3,1.6c0.9,0.4,1.9,0.6,3,0.6c1.3,0,2.4-0.2,3.4-0.6
			s1.6-0.9,2.1-1.4L277.2,121.4z"/>
		<path d="M282,98.5h4.8v25H282V98.5z"/>
		<path d="M291.5,98.5H308v4.8h-6v20.3h-4.8v-20.3h-5.7V98.5z"/>
		<path d="M319.1,115.7l-9-17.2h6l6.3,13l-1.4,0.1l6.2-13.1h6l-9.2,17.2v7.8h-4.8V115.7z"/>
	</g>
</g>
</svg>
