<?xml version="1.0" encoding="utf-8"?>
<!-- Generator: Adobe Illustrator 27.0.0, SVG Export Plug-In . SVG Version: 6.00 Build 0)  -->
<svg version="1.1" baseProfile="tiny" id="Laag_1" xmlns="http://www.w3.org/2000/svg" xmlns:xlink="http://www.w3.org/1999/xlink"
	 x="0px" y="0px" viewBox="0 0 453 226" overflow="visible" xml:space="preserve">
<rect fill="#CCD9D0" width="453" height="226"/>
<rect x="33" y="68" fill="#B5C9BD" width="99" height="158"/>
<rect x="46" y="86" fill="#CCD9D0" width="24" height="24"/>
<rect x="94" y="86" fill="#CCD9D0" width="24" height="24"/>
<rect x="46" y="126" fill="#CCD9D0" width="24" height="24"/>
<rect x="94" y="126" fill="#CCD9D0" width="24" height="24"/>
<rect x="46" y="166" fill="#CCD9D0" width="24" height="24"/>
<rect x="94" y="166" fill="#CCD9D0" width="24" height="24"/>
<rect x="46" y="206" fill="#CCD9D0" width="24" height="24"/>
<rect x="94" y="206" fill="#CCD9D0" width="24" height="24"/>
<rect x="132" y="98" fill="#B5C9BD" width="99" height="158"/>
<rect x="145" y="116" fill="#CCD9D0" width="24" height="24"/>
<rect x="193" y="116" fill="#CCD9D0" width="24" height="24"/>
<rect x="145" y="156" fill="#CCD9D0" width="24" height="24"/>
<rect x="193" y="156" fill="#CCD9D0" width="24" height="24"/>
<rect x="145" y="196" fill="#CCD9D0" width="24" height="24"/>
<rect x="193" y="196" fill="#CCD9D0" width="24" height="24"/>
<rect x="231" y="72" fill="#B5C9BD" width="99" height="158"/>
<rect x="244" y="90" fill="#CCD9D0" width="24" height="24"/>
<rect x="292" y="90" fill="#CCD9D0" width="24" height="24"/>
<rect x="244" y="130" fill="#CCD9D0" width="24" height="24"/>
<rect x="292" y="130" fill="#CCD9D0" width="24" height="24"/>
<rect x="244" y="170" fill="#CCD9D0" width="24" height="24"/>
<rect x="292" y="170" fill="#CCD9D0" width="24" height="24"/>
<rect x="244" y="210" fill="#CCD9D0" width="24" height="24"/>
<rect x="292" y="210" fill="#CCD9D0" width="24" height="24"/>
<rect x="330" y="52" fill="#B5C9BD" width="99" height="177.5"/>
<rect x="343" y="72.2" fill="#CCD9D0" width="24" height="27"/>
<rect x="391" y="72.2" fill="#CCD9D0" width="24" height="27"/>
<rect x="343" y="117.2" fill="#CCD9D0" width="24" height="27"/>
<rect x="391" y="117.2" fill="#CCD9D0" width="24" height="27"/>
<rect x="343" y="162.1" fill="#CCD9D0" width="24" height="27"/>
<rect x="391" y="162.1" fill="#CCD9D0" width="24" height="27"/>
<rect x="343" y="207" fill="#CCD9D0" width="24" height="27"/>
<rect x="391" y="207" fill="#CCD9D0" width="24" height="27"/>
<rect x="-66" y="125" fill="#B5C9BD" width="99" height="158"/>
<rect x="-5" y="143" fill="#CCD9D0" width="24" height="24"/>
<rect x="-5" y="183" fill="#CCD9D0" width="24" height="24"/>
<rect x="-5" y="223" fill="#CCD9D0" width="24" height="24"/>
<rect x="429" y="108" fill="#B5C9BD" width="99" height="158"/>
<rect x="442" y="126" fill="#CCD9D0" width="24" height="24"/>
<rect x="442" y="166" fill="#CCD9D0" width="24" height="24"/>
<rect x="442" y="206" fill="#CCD9D0" width="24" height="24"/>
</svg>
