<?xml version="1.0" encoding="utf-8"?>
<!-- Generator: Adobe Illustrator 27.0.0, SVG Export Plug-In . SVG Version: 6.00 Build 0)  -->
<svg version="1.1" baseProfile="tiny" id="Laag_1" xmlns="http://www.w3.org/2000/svg" xmlns:xlink="http://www.w3.org/1999/xlink"
	 x="0px" y="0px" viewBox="0 0 453 226" overflow="visible" xml:space="preserve">
<rect fill="#CCD9D0" width="453" height="226"/>
<rect x="33" y="68" fill="#B5C9BD" width="99" height="158"/>
<rect x="46" y="86" fill="#CCD9D0" width="24" height="24"/>
<rect x="94" y="86" fill="#CCD9D0" width="24" height="24"/>
<rect x="46" y="126" fill="#CCD9D0" width="24" height="24"/>
<rect x="94" y="126" fill="#CCD9D0" width="24" height="24"/>
<rect x="46" y="166" fill="#CCD9D0" width="24" height="24"/>
<rect x="94" y="166" fill="#CCD9D0" width="24" height="24"/>
<rect x="46" y="206" fill="#CCD9D0" width="24" height="24"/>
<rect x="94" y="206" fill="#CCD9D0" width="24" height="24"/>
<rect x="132" y="98" fill="#B5C9BD" width="99" height="158"/>
<rect x="145" y="116" fill="#CCD9D0" width="24" height="24"/>
<rect x="193" y="116" fill="#CCD9D0" width="24" height="24"/>
<rect x="145" y="156" fill="#CCD9D0" width="24" height="24"/>
<rect x="193" y="156" fill="#CCD9D0" width="24" height="24"/>
<rect x="145" y="196" fill="#CCD9D0" width="24" height="24"/>
<rect x="193" y="196" fill="#CCD9D0" width="24" height="24"/>
<rect x="231" y="72" fill="#B5C9BD" width="99" height="158"/>
<rect x="244" y="90" fill="#CCD9D0" width="24" height="24"/>
<rect x="292" y="90" fill="#CCD9D0" width="24" height="24"/>
<rect x="244" y="130" fill="#CCD9D0" width="24" height="24"/>
<rect x="292" y="130" fill="#CCD9D0" width="24" height="24"/>
<rect x="244" y="170" fill="#CCD9D0" width="24" height="24"/>
<rect x="292" y="170" fill="#CCD9D0" width="24" height="24"/>
<rect x="244" y="210" fill="#CCD9D0" width="24" height="24"/>
<rect x="292" y="210" fill="#CCD9D0" width="24" height="24"/>
<rect x="330" y="52" fill="#B5C9BD" width="99" height="177.5"/>
<rect x="343" y="72.2" fill="#CCD9D0" width="24" height="27"/>
<rect x="391" y="72.2" fill="#CCD9D0" width="24" height="27"/>
<rect x="343" y="117.2" fill="#CCD9D0" width="24" height="27"/>
<rect x="391" y="117.2" fill="#CCD9D0" width="24" height="27"/>
<rect x="343" y="162.1" fill="#CCD9D0" width="24" height="27"/>
<rect x="391" y="162.1" fill="#CCD9D0" width="24" height="27"/>
<rect x="343" y="207" fill="#CCD9D0" width="24" height="27"/>
<rect x="391" y="207" fill="#CCD9D0" width="24" height="27"/>
<rect x="-66" y="125" fill="#B5C9BD" width="99" height="158"/>
<rect x="-5" y="143" fill="#CCD9D0" width="24" height="24"/>
<rect x="-5" y="183" fill="#CCD9D0" width="24" height="24"/>
<rect x="-5" y="223" fill="#CCD9D0" width="24" height="24"/>
<rect x="429" y="108" fill="#B5C9BD" width="99" height="158"/>
<rect x="442" y="126" fill="#CCD9D0" width="24" height="24"/>
<rect x="442" y="166" fill="#CCD9D0" width="24" height="24"/>
<rect x="442" y="206" fill="#CCD9D0" width="24" height="24"/>
<g>
	<g>
		<path d="M93.3,104.5c-0.9-0.5-1.9-1-2.8-1.3s-1.9-0.5-2.7-0.5c-1,0-1.9,0.2-2.5,0.6c-0.6,0.4-0.9,1.1-0.9,1.9
			c0,0.6,0.2,1.1,0.7,1.6s1,0.9,1.8,1.2c0.7,0.4,1.5,0.7,2.2,1c0.7,0.3,1.4,0.6,2.1,1s1.3,0.8,1.9,1.4s1,1.2,1.3,2.1
			c0.3,0.8,0.5,1.8,0.5,3c0,1.3-0.3,2.4-1,3.5c-0.6,1.1-1.6,2-2.8,2.6c-1.2,0.7-2.8,1-4.6,1c-0.9,0-1.9-0.1-2.8-0.3
			c-1-0.2-1.9-0.5-2.8-0.9c-0.9-0.4-1.8-0.9-2.7-1.5l2.1-3.8c0.6,0.4,1.2,0.8,1.9,1.1c0.7,0.3,1.4,0.6,2,0.8
			c0.7,0.2,1.3,0.3,1.9,0.3s1.2-0.1,1.7-0.3s1.1-0.5,1.5-0.9s0.6-1,0.6-1.7c0-0.5-0.2-1-0.5-1.4c-0.3-0.4-0.8-0.8-1.3-1.1
			c-0.5-0.3-1.1-0.6-1.8-0.9c-0.8-0.3-1.5-0.6-2.3-1c-0.8-0.4-1.5-0.9-2.2-1.4c-0.7-0.6-1.3-1.2-1.7-2.1s-0.6-1.8-0.6-3
			c0-1.5,0.3-2.7,0.9-3.8c0.6-1.1,1.5-1.9,2.7-2.5c1.2-0.6,2.5-1,4-1c2,0,3.6,0.2,4.8,0.7c1.2,0.5,2.3,1,3.3,1.7L93.3,104.5z"/>
		<path d="M99.7,98.5h16.7v4.8h-11.9v5.3H115v4.8h-10.5v5.4h12.4v4.8H99.7V98.5z"/>
		<path d="M134.9,104.5c-0.9-0.5-1.9-1-2.8-1.3s-1.9-0.5-2.7-0.5c-1,0-1.9,0.2-2.5,0.6c-0.6,0.4-0.9,1.1-0.9,1.9
			c0,0.6,0.2,1.1,0.7,1.6s1,0.9,1.8,1.2c0.7,0.4,1.5,0.7,2.2,1c0.7,0.3,1.4,0.6,2.1,1s1.3,0.8,1.9,1.4s1,1.2,1.3,2.1
			c0.3,0.8,0.5,1.8,0.5,3c0,1.3-0.3,2.4-1,3.5c-0.6,1.1-1.6,2-2.8,2.6c-1.2,0.7-2.8,1-4.6,1c-0.9,0-1.9-0.1-2.8-0.3
			c-1-0.2-1.9-0.5-2.8-0.9c-0.9-0.4-1.8-0.9-2.7-1.5l2.1-3.8c0.6,0.4,1.2,0.8,1.9,1.1c0.7,0.3,1.4,0.6,2,0.8
			c0.7,0.2,1.3,0.3,1.9,0.3s1.2-0.1,1.7-0.3s1.1-0.5,1.5-0.9s0.6-1,0.6-1.7c0-0.5-0.2-1-0.5-1.4c-0.3-0.4-0.8-0.8-1.3-1.1
			c-0.5-0.3-1.1-0.6-1.8-0.9c-0.8-0.3-1.5-0.6-2.3-1c-0.8-0.4-1.5-0.9-2.2-1.4c-0.7-0.6-1.3-1.2-1.7-2.1s-0.6-1.8-0.6-3
			c0-1.5,0.3-2.7,0.9-3.8c0.6-1.1,1.5-1.9,2.7-2.5c1.2-0.6,2.5-1,4-1c2,0,3.6,0.2,4.8,0.7c1.2,0.5,2.3,1,3.3,1.7L134.9,104.5z"/>
		<path d="M154.3,104.5c-0.9-0.5-1.9-1-2.8-1.3c-1-0.3-1.9-0.5-2.7-0.5c-1,0-1.9,0.2-2.5,0.6c-0.6,0.4-0.9,1.1-0.9,1.9
			c0,0.6,0.2,1.1,0.7,1.6s1,0.9,1.8,1.2c0.7,0.4,1.5,0.7,2.2,1c0.7,0.3,1.4,0.6,2.1,1s1.3,0.8,1.9,1.4c0.6,0.6,1,1.2,1.3,2.1
			c0.3,0.8,0.5,1.8,0.5,3c0,1.3-0.3,2.4-1,3.5c-0.6,1.1-1.6,2-2.8,2.6c-1.2,0.7-2.8,1-4.6,1c-0.9,0-1.9-0.1-2.8-0.3
			c-1-0.2-1.9-0.5-2.8-0.9c-0.9-0.4-1.8-0.9-2.7-1.5l2.1-3.8c0.6,0.4,1.2,0.8,1.9,1.1c0.7,0.3,1.4,0.6,2,0.8s1.3,0.3,1.9,0.3
			c0.6,0,1.2-0.1,1.7-0.3c0.6-0.2,1.1-0.5,1.5-0.9c0.4-0.4,0.6-1,0.6-1.7c0-0.5-0.2-1-0.5-1.4s-0.8-0.8-1.3-1.1
			c-0.5-0.3-1.1-0.6-1.8-0.9c-0.8-0.3-1.5-0.6-2.3-1c-0.8-0.4-1.5-0.9-2.2-1.4c-0.7-0.6-1.3-1.2-1.7-2.1c-0.4-0.8-0.7-1.8-0.7-3
			c0-1.5,0.3-2.7,0.9-3.8s1.5-1.9,2.7-2.5c1.2-0.6,2.5-1,4-1c2,0,3.6,0.2,4.8,0.7c1.2,0.5,2.3,1,3.3,1.7L154.3,104.5z"/>
		<path d="M160.7,98.5h4.8v25h-4.8V98.5z"/>
		<path d="M170.3,111c0-1.7,0.3-3.4,1-4.9c0.6-1.5,1.5-2.9,2.7-4.1c1.1-1.2,2.5-2.1,4-2.8c1.5-0.7,3.1-1,4.9-1c1.7,0,3.3,0.3,4.8,1
			c1.5,0.7,2.8,1.6,4,2.8c1.2,1.2,2.1,2.6,2.7,4.1c0.7,1.5,1,3.2,1,4.9c0,1.8-0.3,3.4-1,5c-0.7,1.5-1.6,2.9-2.7,4.1
			c-1.2,1.2-2.5,2.1-4,2.7s-3.1,1-4.8,1c-1.7,0-3.4-0.3-4.9-1c-1.5-0.7-2.8-1.6-4-2.7c-1.1-1.2-2-2.5-2.7-4.1S170.3,112.8,170.3,111
			z M175.3,111c0,1.1,0.2,2.1,0.6,3.1c0.4,1,0.9,1.8,1.6,2.5c0.7,0.7,1.5,1.3,2.4,1.7c0.9,0.4,1.9,0.6,3,0.6c1,0,2-0.2,2.9-0.6
			c0.9-0.4,1.7-1,2.3-1.7c0.7-0.7,1.2-1.6,1.6-2.5c0.4-1,0.6-2,0.6-3.1c0-1.1-0.2-2.2-0.6-3.2s-0.9-1.8-1.6-2.6
			c-0.7-0.7-1.5-1.3-2.4-1.7s-1.9-0.6-3-0.6c-1.1,0-2.1,0.2-3,0.6s-1.7,1-2.4,1.7c-0.7,0.7-1.2,1.6-1.6,2.6
			C175.5,108.8,175.3,109.9,175.3,111z"/>
		<path d="M222.1,124.5l-18.6-17.1l1.4,0.8l0.1,15.3h-4.9v-26h0.2l18.2,17.1l-1.1-0.5l-0.1-15.6h4.9v26H222.1z"/>
		<path d="M251.4,101l-5,9.8l-2.6-1.5c0.2-0.1,0.5-0.2,0.7-0.2c0.3,0,0.5-0.1,0.7-0.1c0.8,0,1.6,0.1,2.3,0.3s1.5,0.6,2.1,1.1
			c0.6,0.5,1.1,1.2,1.5,2.1c0.4,0.9,0.6,2.1,0.6,3.5c0,1.6-0.4,3-1.1,4.2c-0.7,1.2-1.7,2.1-2.9,2.7c-1.2,0.6-2.5,0.9-3.9,0.9
			c-1.1,0-2.2-0.2-3.4-0.7c-1.2-0.5-2.2-1.1-2.9-1.9l2.5-4.1c0.3,0.4,0.8,0.9,1.5,1.3c0.7,0.4,1.4,0.6,2.2,0.6c0.5,0,1-0.1,1.4-0.4
			c0.5-0.2,0.9-0.6,1.2-1.1c0.3-0.5,0.5-1.1,0.5-1.8c0-1-0.3-1.8-0.8-2.4c-0.5-0.6-1.3-0.9-2.3-0.9c-0.7,0-1.2,0-1.5,0.1
			c-0.3,0.1-0.7,0.1-1,0.2l-0.1-0.1l3.9-7.4l1.4,0.6h-7V101H251.4z"/>
		<path d="M266.4,113.6h6.3v4.1h-6.3V113.6z"/>
		<path d="M297.2,123.9c-0.9,0-1.7-0.2-2.5-0.5c-0.8-0.3-1.5-0.8-2.1-1.4l0.1-1.4v10H288v-22.3h4l0.7,2.9l-0.4-1
			c0.8-0.7,1.6-1.2,2.5-1.6c0.9-0.4,2-0.6,3.2-0.6c1.4,0,2.6,0.3,3.6,1c1.1,0.6,1.9,1.6,2.5,2.8c0.6,1.2,0.9,2.7,0.9,4.4
			c0,1.7-0.3,3.1-1,4.3c-0.7,1.2-1.6,2.1-2.8,2.7C300.1,123.6,298.7,123.9,297.2,123.9z M296.2,120.2c0.8,0,1.4-0.2,2.1-0.5
			s1.1-0.8,1.5-1.4c0.4-0.6,0.6-1.3,0.6-2.1c0-0.8-0.2-1.6-0.5-2.2s-0.8-1.1-1.4-1.5s-1.2-0.5-1.9-0.5c-0.6,0-1.2,0.1-1.6,0.3
			c-0.5,0.2-0.9,0.4-1.3,0.7c-0.4,0.3-0.7,0.7-0.9,1.2v3.6c0.2,0.5,0.4,0.9,0.8,1.3c0.3,0.4,0.7,0.6,1.2,0.8
			C295.2,120.1,295.7,120.2,296.2,120.2z"/>
		<path d="M314.9,123.9c-1.4,0-2.6-0.3-3.7-0.8c-1.1-0.6-2-1.4-2.6-2.6c-0.6-1.2-1-2.6-1-4.4c0-1.7,0.3-3.1,1-4.4s1.5-2.2,2.6-2.8
			c1.1-0.7,2.2-1,3.5-1c1.4,0,2.5,0.2,3.3,0.7c0.7,0.5,1.4,1,1.8,1.6l-0.2,0.6l0.4-2.2h4.3v14.9h-4.7v-3.2l0.4,1
			c0,0-0.2,0.1-0.4,0.4c-0.2,0.3-0.5,0.6-1,0.9c-0.4,0.4-1,0.7-1.6,0.9C316.5,123.8,315.8,123.9,314.9,123.9z M316.3,120
			c0.6,0,1.1-0.1,1.5-0.3s0.8-0.4,1.2-0.7c0.3-0.3,0.6-0.7,0.9-1.2v-3.6c-0.2-0.5-0.4-0.9-0.8-1.3c-0.4-0.4-0.8-0.6-1.3-0.8
			s-1-0.3-1.6-0.3c-0.7,0-1.3,0.2-1.8,0.5c-0.6,0.4-1,0.8-1.3,1.4c-0.3,0.6-0.5,1.3-0.5,2.1c0,0.8,0.2,1.5,0.5,2.1s0.8,1.1,1.4,1.5
			C314.9,119.9,315.6,120,316.3,120z"/>
		<path d="M333.4,108.6l0.4,4.1l-0.1-0.6c0.4-0.9,1-1.6,1.7-2.3s1.5-1.1,2.2-1.4s1.3-0.5,1.6-0.5l-0.2,4.8c-1.1-0.1-2,0-2.8,0.5
			c-0.8,0.5-1.4,1.2-1.8,2s-0.6,1.7-0.6,2.5v5.8h-4.6v-14.9H333.4z"/>
		<path d="M344.3,102.1h4.7v6.5h3.5v3.7h-3.5v11.2h-4.7v-11.2H342v-3.7h2.3V102.1z"/>
		<path d="M366.1,101h6.6v22.5h-4.9v-17.8h-1.8V101z"/>
	</g>
</g>
</svg>
