<?xml version="1.0" encoding="utf-8"?>
<!-- Generator: Adobe Illustrator 27.0.0, SVG Export Plug-In . SVG Version: 6.00 Build 0)  -->
<svg version="1.1" baseProfile="tiny" id="Laag_1" xmlns="http://www.w3.org/2000/svg" xmlns:xlink="http://www.w3.org/1999/xlink"
	 x="0px" y="0px" viewBox="0 0 453 226" overflow="visible" xml:space="preserve">
<rect fill="#CCD9D0" width="453" height="226"/>
<rect x="33" y="68" fill="#B5C9BD" width="99" height="158"/>
<rect x="46" y="86" fill="#CCD9D0" width="24" height="24"/>
<rect x="94" y="86" fill="#CCD9D0" width="24" height="24"/>
<rect x="46" y="126" fill="#CCD9D0" width="24" height="24"/>
<rect x="94" y="126" fill="#CCD9D0" width="24" height="24"/>
<rect x="46" y="166" fill="#CCD9D0" width="24" height="24"/>
<rect x="94" y="166" fill="#CCD9D0" width="24" height="24"/>
<rect x="46" y="206" fill="#CCD9D0" width="24" height="24"/>
<rect x="94" y="206" fill="#CCD9D0" width="24" height="24"/>
<rect x="132" y="98" fill="#B5C9BD" width="99" height="158"/>
<rect x="145" y="116" fill="#CCD9D0" width="24" height="24"/>
<rect x="193" y="116" fill="#CCD9D0" width="24" height="24"/>
<rect x="145" y="156" fill="#CCD9D0" width="24" height="24"/>
<rect x="193" y="156" fill="#CCD9D0" width="24" height="24"/>
<rect x="145" y="196" fill="#CCD9D0" width="24" height="24"/>
<rect x="193" y="196" fill="#CCD9D0" width="24" height="24"/>
<rect x="231" y="72" fill="#B5C9BD" width="99" height="158"/>
<rect x="244" y="90" fill="#CCD9D0" width="24" height="24"/>
<rect x="292" y="90" fill="#CCD9D0" width="24" height="24"/>
<rect x="244" y="130" fill="#CCD9D0" width="24" height="24"/>
<rect x="292" y="130" fill="#CCD9D0" width="24" height="24"/>
<rect x="244" y="170" fill="#CCD9D0" width="24" height="24"/>
<rect x="292" y="170" fill="#CCD9D0" width="24" height="24"/>
<rect x="244" y="210" fill="#CCD9D0" width="24" height="24"/>
<rect x="292" y="210" fill="#CCD9D0" width="24" height="24"/>
<rect x="330" y="52" fill="#B5C9BD" width="99" height="177.5"/>
<rect x="343" y="72.2" fill="#CCD9D0" width="24" height="27"/>
<rect x="391" y="72.2" fill="#CCD9D0" width="24" height="27"/>
<rect x="343" y="117.2" fill="#CCD9D0" width="24" height="27"/>
<rect x="391" y="117.2" fill="#CCD9D0" width="24" height="27"/>
<rect x="343" y="162.1" fill="#CCD9D0" width="24" height="27"/>
<rect x="391" y="162.1" fill="#CCD9D0" width="24" height="27"/>
<rect x="343" y="207" fill="#CCD9D0" width="24" height="27"/>
<rect x="391" y="207" fill="#CCD9D0" width="24" height="27"/>
<rect x="-66" y="125" fill="#B5C9BD" width="99" height="158"/>
<rect x="-5" y="143" fill="#CCD9D0" width="24" height="24"/>
<rect x="-5" y="183" fill="#CCD9D0" width="24" height="24"/>
<rect x="-5" y="223" fill="#CCD9D0" width="24" height="24"/>
<rect x="429" y="108" fill="#B5C9BD" width="99" height="158"/>
<rect x="442" y="126" fill="#CCD9D0" width="24" height="24"/>
<rect x="442" y="166" fill="#CCD9D0" width="24" height="24"/>
<rect x="442" y="206" fill="#CCD9D0" width="24" height="24"/>
<g>
	<g>
		<path d="M154.4,104.5c-0.9-0.5-1.9-1-2.8-1.3c-1-0.3-1.9-0.5-2.7-0.5c-1,0-1.9,0.2-2.5,0.6c-0.6,0.4-0.9,1.1-0.9,1.9
			c0,0.6,0.2,1.1,0.7,1.6s1,0.9,1.8,1.2c0.7,0.4,1.5,0.7,2.2,1c0.7,0.3,1.4,0.6,2.1,1s1.3,0.8,1.9,1.4c0.6,0.6,1,1.2,1.3,2.1
			c0.3,0.8,0.5,1.8,0.5,3c0,1.3-0.3,2.4-1,3.5c-0.6,1.1-1.6,2-2.8,2.6c-1.2,0.7-2.8,1-4.6,1c-0.9,0-1.9-0.1-2.8-0.3
			c-1-0.2-1.9-0.5-2.8-0.9c-0.9-0.4-1.8-0.9-2.7-1.5l2.1-3.8c0.6,0.4,1.2,0.8,1.9,1.1c0.7,0.3,1.4,0.6,2,0.8s1.3,0.3,1.9,0.3
			c0.6,0,1.2-0.1,1.7-0.3c0.6-0.2,1.1-0.5,1.5-0.9c0.4-0.4,0.6-1,0.6-1.7c0-0.5-0.2-1-0.5-1.4s-0.8-0.8-1.3-1.1
			c-0.5-0.3-1.1-0.6-1.8-0.9c-0.8-0.3-1.5-0.6-2.3-1c-0.8-0.4-1.5-0.9-2.2-1.4c-0.7-0.6-1.3-1.2-1.7-2.1c-0.4-0.8-0.7-1.8-0.7-3
			c0-1.5,0.3-2.7,0.9-3.8s1.5-1.9,2.7-2.5c1.2-0.6,2.5-1,4-1c2,0,3.6,0.2,4.8,0.7c1.2,0.5,2.3,1,3.3,1.7L154.4,104.5z"/>
		<path d="M160.7,98.5h16.7v4.8h-11.9v5.3h10.5v4.8h-10.5v5.4h12.4v4.8h-17.2V98.5z"/>
		<path d="M196,104.5c-0.9-0.5-1.9-1-2.8-1.3c-1-0.3-1.9-0.5-2.7-0.5c-1,0-1.9,0.2-2.5,0.6c-0.6,0.4-0.9,1.1-0.9,1.9
			c0,0.6,0.2,1.1,0.7,1.6s1,0.9,1.8,1.2c0.7,0.4,1.5,0.7,2.2,1c0.7,0.3,1.4,0.6,2.1,1s1.3,0.8,1.9,1.4c0.6,0.6,1,1.2,1.3,2.1
			c0.3,0.8,0.5,1.8,0.5,3c0,1.3-0.3,2.4-1,3.5c-0.6,1.1-1.6,2-2.8,2.6c-1.2,0.7-2.8,1-4.6,1c-0.9,0-1.9-0.1-2.8-0.3
			c-1-0.2-1.9-0.5-2.8-0.9c-0.9-0.4-1.8-0.9-2.7-1.5l2.1-3.8c0.6,0.4,1.2,0.8,1.9,1.1c0.7,0.3,1.4,0.6,2,0.8s1.3,0.3,1.9,0.3
			c0.6,0,1.2-0.1,1.7-0.3c0.6-0.2,1.1-0.5,1.5-0.9c0.4-0.4,0.6-1,0.6-1.7c0-0.5-0.2-1-0.5-1.4s-0.8-0.8-1.3-1.1
			c-0.5-0.3-1.1-0.6-1.8-0.9c-0.8-0.3-1.5-0.6-2.3-1c-0.8-0.4-1.5-0.9-2.2-1.4c-0.7-0.6-1.3-1.2-1.7-2.1c-0.4-0.8-0.7-1.8-0.7-3
			c0-1.5,0.3-2.7,0.9-3.8s1.5-1.9,2.7-2.5c1.2-0.6,2.5-1,4-1c2,0,3.6,0.2,4.8,0.7c1.2,0.5,2.3,1,3.3,1.7L196,104.5z"/>
		<path d="M215.4,104.5c-0.9-0.5-1.9-1-2.8-1.3s-1.9-0.5-2.7-0.5c-1,0-1.9,0.2-2.5,0.6c-0.6,0.4-0.9,1.1-0.9,1.9
			c0,0.6,0.2,1.1,0.7,1.6s1,0.9,1.8,1.2c0.7,0.4,1.5,0.7,2.2,1c0.7,0.3,1.4,0.6,2.1,1s1.3,0.8,1.9,1.4s1,1.2,1.3,2.1
			c0.3,0.8,0.5,1.8,0.5,3c0,1.3-0.3,2.4-1,3.5c-0.6,1.1-1.6,2-2.8,2.6c-1.2,0.7-2.8,1-4.6,1c-0.9,0-1.9-0.1-2.8-0.3
			c-1-0.2-1.9-0.5-2.8-0.9c-0.9-0.4-1.8-0.9-2.7-1.5l2.1-3.8c0.6,0.4,1.2,0.8,1.9,1.1c0.7,0.3,1.4,0.6,2,0.8
			c0.7,0.2,1.3,0.3,1.9,0.3s1.2-0.1,1.7-0.3s1.1-0.5,1.5-0.9s0.6-1,0.6-1.7c0-0.5-0.2-1-0.5-1.4c-0.3-0.4-0.8-0.8-1.3-1.1
			c-0.5-0.3-1.1-0.6-1.8-0.9c-0.8-0.3-1.5-0.6-2.3-1c-0.8-0.4-1.5-0.9-2.2-1.4c-0.7-0.6-1.3-1.2-1.7-2.1s-0.6-1.8-0.6-3
			c0-1.5,0.3-2.7,0.9-3.8c0.6-1.1,1.5-1.9,2.7-2.5c1.2-0.6,2.5-1,4-1c2,0,3.6,0.2,4.8,0.7c1.2,0.5,2.3,1,3.3,1.7L215.4,104.5z"/>
		<path d="M221.7,98.5h4.8v25h-4.8V98.5z"/>
		<path d="M231.4,111c0-1.7,0.3-3.4,1-4.9c0.6-1.5,1.5-2.9,2.7-4.1c1.1-1.2,2.5-2.1,4-2.8c1.5-0.7,3.1-1,4.9-1c1.7,0,3.3,0.3,4.8,1
			c1.5,0.7,2.8,1.6,4,2.8s2.1,2.6,2.7,4.1c0.7,1.5,1,3.2,1,4.9c0,1.8-0.3,3.4-1,5s-1.6,2.9-2.7,4.1c-1.2,1.2-2.5,2.1-4,2.7
			s-3.1,1-4.8,1c-1.7,0-3.4-0.3-4.9-1s-2.8-1.6-4-2.7c-1.1-1.2-2-2.5-2.7-4.1C231.7,114.5,231.4,112.8,231.4,111z M236.4,111
			c0,1.1,0.2,2.1,0.6,3.1c0.4,1,0.9,1.8,1.6,2.5c0.7,0.7,1.5,1.3,2.4,1.7c0.9,0.4,1.9,0.6,3,0.6c1,0,2-0.2,2.9-0.6
			c0.9-0.4,1.7-1,2.3-1.7c0.7-0.7,1.2-1.6,1.6-2.5c0.4-1,0.6-2,0.6-3.1c0-1.1-0.2-2.2-0.6-3.2s-0.9-1.8-1.6-2.6
			c-0.7-0.7-1.5-1.3-2.4-1.7s-1.9-0.6-3-0.6c-1.1,0-2.1,0.2-3,0.6s-1.7,1-2.4,1.7c-0.7,0.7-1.2,1.6-1.6,2.6S236.4,109.9,236.4,111z"
			/>
		<path d="M283.2,124.5l-18.6-17.1l1.4,0.8l0.1,15.3h-4.9v-26h0.2l18.2,17.1l-1.1-0.5l-0.1-15.6h4.9v26H283.2z"/>
		<path d="M312.5,101l-5,9.8l-2.6-1.5c0.2-0.1,0.5-0.2,0.7-0.2c0.3,0,0.5-0.1,0.7-0.1c0.8,0,1.6,0.1,2.3,0.3s1.5,0.6,2.1,1.1
			c0.6,0.5,1.1,1.2,1.5,2.1s0.6,2.1,0.6,3.5c0,1.6-0.4,3-1.1,4.2c-0.7,1.2-1.7,2.1-2.9,2.7c-1.2,0.6-2.5,0.9-3.9,0.9
			c-1.1,0-2.2-0.2-3.4-0.7c-1.2-0.5-2.2-1.1-2.9-1.9l2.5-4.1c0.3,0.4,0.8,0.9,1.5,1.3c0.7,0.4,1.4,0.6,2.2,0.6c0.5,0,1-0.1,1.4-0.4
			c0.5-0.2,0.9-0.6,1.2-1.1c0.3-0.5,0.5-1.1,0.5-1.8c0-1-0.3-1.8-0.8-2.4c-0.5-0.6-1.3-0.9-2.3-0.9c-0.7,0-1.2,0-1.5,0.1
			c-0.3,0.1-0.7,0.1-1,0.2l-0.1-0.1l3.9-7.4l1.4,0.6h-7V101H312.5z"/>
	</g>
</g>
</svg>
