<?xml version="1.0" encoding="utf-8"?>
<!-- Generator: Adobe Illustrator 27.0.0, SVG Export Plug-In . SVG Version: 6.00 Build 0)  -->
<svg version="1.1" baseProfile="tiny" xmlns="http://www.w3.org/2000/svg" xmlns:xlink="http://www.w3.org/1999/xlink" x="0px"
	 y="0px" viewBox="0 0 453 226" overflow="visible" xml:space="preserve">
<g id="background">
	<rect fill="#CCD9D0" width="453" height="226"/>
</g>
<g id="Laag_2">
	<rect x="33" y="68" fill="#B5C9BD" width="99" height="158"/>
	<rect x="46" y="86" fill="#CCD9D0" width="24" height="24"/>
	<rect x="94" y="86" fill="#CCD9D0" width="24" height="24"/>
	<rect x="46" y="126" fill="#CCD9D0" width="24" height="24"/>
	<rect x="94" y="126" fill="#CCD9D0" width="24" height="24"/>
	<rect x="46" y="166" fill="#CCD9D0" width="24" height="24"/>
	<rect x="94" y="166" fill="#CCD9D0" width="24" height="24"/>
	<rect x="46" y="206" fill="#CCD9D0" width="24" height="24"/>
	<rect x="94" y="206" fill="#CCD9D0" width="24" height="24"/>
	<rect x="132" y="98" fill="#B5C9BD" width="99" height="158"/>
	<rect x="145" y="116" fill="#CCD9D0" width="24" height="24"/>
	<rect x="193" y="116" fill="#CCD9D0" width="24" height="24"/>
	<rect x="145" y="156" fill="#CCD9D0" width="24" height="24"/>
	<rect x="193" y="156" fill="#CCD9D0" width="24" height="24"/>
	<rect x="145" y="196" fill="#CCD9D0" width="24" height="24"/>
	<rect x="193" y="196" fill="#CCD9D0" width="24" height="24"/>
	<rect x="145" y="236" fill="#CCD9D0" width="24" height="24"/>
	<rect x="193" y="236" fill="#CCD9D0" width="24" height="24"/>
	<rect x="231" y="72" fill="#B5C9BD" width="99" height="158"/>
	<rect x="244" y="90" fill="#CCD9D0" width="24" height="24"/>
	<rect x="292" y="90" fill="#CCD9D0" width="24" height="24"/>
	<rect x="244" y="130" fill="#CCD9D0" width="24" height="24"/>
	<rect x="292" y="130" fill="#CCD9D0" width="24" height="24"/>
	<rect x="244" y="170" fill="#CCD9D0" width="24" height="24"/>
	<rect x="292" y="170" fill="#CCD9D0" width="24" height="24"/>
	<rect x="244" y="210" fill="#CCD9D0" width="24" height="24"/>
	<rect x="292" y="210" fill="#CCD9D0" width="24" height="24"/>
	<rect x="330" y="52" fill="#B5C9BD" width="99" height="177.5"/>
	<rect x="343" y="72.2" fill="#CCD9D0" width="24" height="27"/>
	<rect x="391" y="72.2" fill="#CCD9D0" width="24" height="27"/>
	<rect x="343" y="117.2" fill="#CCD9D0" width="24" height="27"/>
	<rect x="391" y="117.2" fill="#CCD9D0" width="24" height="27"/>
	<rect x="343" y="162.1" fill="#CCD9D0" width="24" height="27"/>
	<rect x="391" y="162.1" fill="#CCD9D0" width="24" height="27"/>
	<rect x="343" y="207" fill="#CCD9D0" width="24" height="27"/>
	<rect x="391" y="207" fill="#CCD9D0" width="24" height="27"/>
	<rect x="-66" y="125" fill="#B5C9BD" width="99" height="158"/>
	<rect x="-53" y="143" fill="#CCD9D0" width="24" height="24"/>
	<rect x="-5" y="143" fill="#CCD9D0" width="24" height="24"/>
	<rect x="-53" y="183" fill="#CCD9D0" width="24" height="24"/>
	<rect x="-5" y="183" fill="#CCD9D0" width="24" height="24"/>
	<rect x="-53" y="223" fill="#CCD9D0" width="24" height="24"/>
	<rect x="-5" y="223" fill="#CCD9D0" width="24" height="24"/>
	<rect x="-53" y="263" fill="#CCD9D0" width="24" height="24"/>
	<rect x="-5" y="263" fill="#CCD9D0" width="24" height="24"/>
	<rect x="429" y="108" fill="#B5C9BD" width="99" height="158"/>
	<rect x="442" y="126" fill="#CCD9D0" width="24" height="24"/>
	<rect x="490" y="126" fill="#CCD9D0" width="24" height="24"/>
	<rect x="442" y="166" fill="#CCD9D0" width="24" height="24"/>
	<rect x="490" y="166" fill="#CCD9D0" width="24" height="24"/>
	<rect x="442" y="206" fill="#CCD9D0" width="24" height="24"/>
	<rect x="490" y="206" fill="#CCD9D0" width="24" height="24"/>
	<rect x="442" y="246" fill="#CCD9D0" width="24" height="24"/>
	<rect x="490" y="246" fill="#CCD9D0" width="24" height="24"/>
	<g>
		<g>
			<path d="M156,104.5c-1-0.5-1.9-1-2.9-1.3c-1-0.3-1.9-0.5-2.8-0.5c-1.1,0-1.9,0.2-2.5,0.6c-0.6,0.4-0.9,1.1-0.9,1.9
				c0,0.6,0.2,1.1,0.7,1.6c0.5,0.5,1.1,0.9,1.8,1.2c0.7,0.4,1.5,0.7,2.3,1c0.7,0.3,1.4,0.6,2.2,1s1.4,0.8,1.9,1.4s1,1.2,1.4,2.1
				s0.5,1.8,0.5,3c0,1.3-0.3,2.4-1,3.5c-0.7,1.1-1.6,2-2.9,2.6s-2.8,1-4.7,1c-1,0-1.9-0.1-2.9-0.3c-1-0.2-2-0.5-2.9-0.9
				s-1.9-0.9-2.8-1.5l2.2-3.8c0.6,0.4,1.2,0.8,1.9,1.1c0.7,0.3,1.4,0.6,2.1,0.8c0.7,0.2,1.3,0.3,1.9,0.3c0.6,0,1.2-0.1,1.8-0.3
				c0.6-0.2,1.1-0.5,1.5-0.9c0.4-0.4,0.6-1,0.6-1.7c0-0.5-0.2-1-0.5-1.4c-0.3-0.4-0.8-0.8-1.3-1.1s-1.2-0.6-1.8-0.9
				c-0.8-0.3-1.6-0.6-2.4-1c-0.8-0.4-1.6-0.9-2.3-1.4c-0.7-0.6-1.3-1.2-1.7-2.1c-0.4-0.8-0.7-1.8-0.7-3c0-1.5,0.3-2.7,1-3.8
				c0.6-1.1,1.6-1.9,2.7-2.5c1.2-0.6,2.5-1,4.1-1c2,0,3.7,0.2,4.9,0.7c1.3,0.5,2.4,1,3.4,1.7L156,104.5z"/>
			<path d="M162.4,98.5h17.1v4.8h-12.1v5.3h10.7v4.8h-10.7v5.4H180v4.8h-17.5V98.5z"/>
			<path d="M198.5,104.5c-1-0.5-1.9-1-2.9-1.3c-1-0.3-1.9-0.5-2.8-0.5c-1.1,0-1.9,0.2-2.5,0.6c-0.6,0.4-0.9,1.1-0.9,1.9
				c0,0.6,0.2,1.1,0.7,1.6s1.1,0.9,1.8,1.2c0.7,0.4,1.5,0.7,2.3,1c0.7,0.3,1.4,0.6,2.2,1s1.4,0.8,1.9,1.4c0.6,0.6,1,1.2,1.4,2.1
				c0.3,0.8,0.5,1.8,0.5,3c0,1.3-0.3,2.4-1,3.5c-0.7,1.1-1.6,2-2.9,2.6c-1.3,0.7-2.8,1-4.7,1c-1,0-1.9-0.1-2.9-0.3
				c-1-0.2-2-0.5-2.9-0.9c-1-0.4-1.9-0.9-2.8-1.5l2.2-3.8c0.6,0.4,1.2,0.8,1.9,1.1c0.7,0.3,1.4,0.6,2.1,0.8c0.7,0.2,1.3,0.3,1.9,0.3
				c0.6,0,1.2-0.1,1.8-0.3s1.1-0.5,1.5-0.9c0.4-0.4,0.6-1,0.6-1.7c0-0.5-0.2-1-0.5-1.4c-0.3-0.4-0.8-0.8-1.3-1.1
				c-0.6-0.3-1.2-0.6-1.8-0.9c-0.8-0.3-1.6-0.6-2.4-1c-0.8-0.4-1.6-0.9-2.3-1.4c-0.7-0.6-1.3-1.2-1.7-2.1c-0.4-0.8-0.7-1.8-0.7-3
				c0-1.5,0.3-2.7,1-3.8c0.6-1.1,1.6-1.9,2.7-2.5c1.2-0.6,2.5-1,4.1-1c2,0,3.7,0.2,4.9,0.7c1.3,0.5,2.4,1,3.4,1.7L198.5,104.5z"/>
			<path d="M218.3,104.5c-1-0.5-1.9-1-2.9-1.3c-1-0.3-1.9-0.5-2.8-0.5c-1.1,0-1.9,0.2-2.5,0.6c-0.6,0.4-0.9,1.1-0.9,1.9
				c0,0.6,0.2,1.1,0.7,1.6c0.5,0.5,1.1,0.9,1.8,1.2c0.7,0.4,1.5,0.7,2.3,1c0.7,0.3,1.4,0.6,2.2,1s1.4,0.8,1.9,1.4s1,1.2,1.4,2.1
				s0.5,1.8,0.5,3c0,1.3-0.3,2.4-1,3.5c-0.7,1.1-1.6,2-2.9,2.6s-2.8,1-4.7,1c-1,0-1.9-0.1-2.9-0.3c-1-0.2-2-0.5-2.9-0.9
				s-1.9-0.9-2.8-1.5l2.2-3.8c0.6,0.4,1.2,0.8,1.9,1.1c0.7,0.3,1.4,0.6,2.1,0.8c0.7,0.2,1.3,0.3,1.9,0.3c0.6,0,1.2-0.1,1.8-0.3
				c0.6-0.2,1.1-0.5,1.5-0.9c0.4-0.4,0.6-1,0.6-1.7c0-0.5-0.2-1-0.5-1.4c-0.3-0.4-0.8-0.8-1.3-1.1s-1.2-0.6-1.8-0.9
				c-0.8-0.3-1.6-0.6-2.4-1c-0.8-0.4-1.6-0.9-2.3-1.4c-0.7-0.6-1.3-1.2-1.7-2.1c-0.4-0.8-0.7-1.8-0.7-3c0-1.5,0.3-2.7,1-3.8
				c0.6-1.1,1.6-1.9,2.7-2.5c1.2-0.6,2.5-1,4.1-1c2,0,3.7,0.2,4.9,0.7c1.3,0.5,2.4,1,3.4,1.7L218.3,104.5z"/>
			<path d="M224.7,98.5h4.9v25h-4.9V98.5z"/>
			<path d="M234.6,111c0-1.7,0.3-3.4,1-4.9c0.7-1.5,1.6-2.9,2.7-4.1c1.2-1.2,2.5-2.1,4.1-2.8c1.5-0.7,3.2-1,5-1c1.7,0,3.4,0.3,4.9,1
				c1.5,0.7,2.9,1.6,4.1,2.8c1.2,1.2,2.1,2.6,2.8,4.1c0.7,1.5,1,3.2,1,4.9c0,1.8-0.3,3.4-1,5c-0.7,1.5-1.6,2.9-2.8,4.1
				c-1.2,1.2-2.6,2.1-4.1,2.7c-1.5,0.7-3.2,1-4.9,1c-1.8,0-3.4-0.3-5-1c-1.5-0.7-2.9-1.6-4.1-2.7c-1.2-1.2-2.1-2.5-2.7-4.1
				C234.9,114.5,234.6,112.8,234.6,111z M239.7,111c0,1.1,0.2,2.1,0.6,3.1c0.4,1,1,1.8,1.7,2.6s1.5,1.3,2.5,1.7s2,0.6,3.1,0.6
				c1.1,0,2.1-0.2,3-0.6s1.7-1,2.4-1.7c0.7-0.7,1.2-1.6,1.6-2.6c0.4-1,0.6-2,0.6-3.1c0-1.1-0.2-2.2-0.6-3.2c-0.4-1-0.9-1.8-1.6-2.6
				c-0.7-0.7-1.5-1.3-2.4-1.7s-1.9-0.6-3-0.6s-2.1,0.2-3,0.6c-0.9,0.4-1.7,1-2.4,1.7c-0.7,0.7-1.2,1.6-1.6,2.6
				S239.7,109.9,239.7,111z"/>
			<path d="M287.5,124.5l-19-17.1l1.5,0.8l0.1,15.3h-5v-26h0.2l18.6,17.1l-1.1-0.5l-0.1-15.6h5v26H287.5z"/>
			<path d="M303.6,101h6.8v22.5h-5v-17.8h-1.8V101z"/>
		</g>
	</g>
</g>
</svg>
