<?xml version="1.0" encoding="utf-8"?>
<!-- Generator: Adobe Illustrator 27.0.0, SVG Export Plug-In . SVG Version: 6.00 Build 0)  -->
<svg version="1.1" baseProfile="tiny" id="Laag_1" xmlns="http://www.w3.org/2000/svg" xmlns:xlink="http://www.w3.org/1999/xlink"
	 x="0px" y="0px" viewBox="0 0 453 226" overflow="visible" xml:space="preserve">
<rect fill="#CCD9D0" width="453" height="226"/>
<rect x="33" y="68" fill="#B5C9BD" width="99" height="158"/>
<rect x="46" y="86" fill="#CCD9D0" width="24" height="24"/>
<rect x="94" y="86" fill="#CCD9D0" width="24" height="24"/>
<rect x="46" y="126" fill="#CCD9D0" width="24" height="24"/>
<rect x="94" y="126" fill="#CCD9D0" width="24" height="24"/>
<rect x="46" y="166" fill="#CCD9D0" width="24" height="24"/>
<rect x="94" y="166" fill="#CCD9D0" width="24" height="24"/>
<rect x="46" y="206" fill="#CCD9D0" width="24" height="24"/>
<rect x="94" y="206" fill="#CCD9D0" width="24" height="24"/>
<rect x="132" y="98" fill="#B5C9BD" width="99" height="158"/>
<rect x="145" y="116" fill="#CCD9D0" width="24" height="24"/>
<rect x="193" y="116" fill="#CCD9D0" width="24" height="24"/>
<rect x="145" y="156" fill="#CCD9D0" width="24" height="24"/>
<rect x="193" y="156" fill="#CCD9D0" width="24" height="24"/>
<rect x="145" y="196" fill="#CCD9D0" width="24" height="24"/>
<rect x="193" y="196" fill="#CCD9D0" width="24" height="24"/>
<rect x="231" y="72" fill="#B5C9BD" width="99" height="158"/>
<rect x="244" y="90" fill="#CCD9D0" width="24" height="24"/>
<rect x="292" y="90" fill="#CCD9D0" width="24" height="24"/>
<rect x="244" y="130" fill="#CCD9D0" width="24" height="24"/>
<rect x="292" y="130" fill="#CCD9D0" width="24" height="24"/>
<rect x="244" y="170" fill="#CCD9D0" width="24" height="24"/>
<rect x="292" y="170" fill="#CCD9D0" width="24" height="24"/>
<rect x="244" y="210" fill="#CCD9D0" width="24" height="24"/>
<rect x="292" y="210" fill="#CCD9D0" width="24" height="24"/>
<rect x="330" y="52" fill="#B5C9BD" width="99" height="177.5"/>
<rect x="343" y="72.2" fill="#CCD9D0" width="24" height="27"/>
<rect x="391" y="72.2" fill="#CCD9D0" width="24" height="27"/>
<rect x="343" y="117.2" fill="#CCD9D0" width="24" height="27"/>
<rect x="391" y="117.2" fill="#CCD9D0" width="24" height="27"/>
<rect x="343" y="162.1" fill="#CCD9D0" width="24" height="27"/>
<rect x="391" y="162.1" fill="#CCD9D0" width="24" height="27"/>
<rect x="343" y="207" fill="#CCD9D0" width="24" height="27"/>
<rect x="391" y="207" fill="#CCD9D0" width="24" height="27"/>
<rect x="-66" y="125" fill="#B5C9BD" width="99" height="158"/>
<rect x="-5" y="143" fill="#CCD9D0" width="24" height="24"/>
<rect x="-5" y="183" fill="#CCD9D0" width="24" height="24"/>
<rect x="-5" y="223" fill="#CCD9D0" width="24" height="24"/>
<rect x="429" y="108" fill="#B5C9BD" width="99" height="158"/>
<rect x="442" y="126" fill="#CCD9D0" width="24" height="24"/>
<rect x="442" y="166" fill="#CCD9D0" width="24" height="24"/>
<rect x="442" y="206" fill="#CCD9D0" width="24" height="24"/>
<g>
	<g>
		<path d="M153.5,104.5c-0.9-0.5-1.9-1-2.8-1.3c-1-0.3-1.9-0.5-2.7-0.5c-1,0-1.9,0.2-2.5,0.6c-0.6,0.4-0.9,1.1-0.9,1.9
			c0,0.6,0.2,1.1,0.7,1.6s1,0.9,1.8,1.2c0.7,0.4,1.5,0.7,2.2,1c0.7,0.3,1.4,0.6,2.1,1s1.3,0.8,1.9,1.4c0.6,0.6,1,1.2,1.3,2.1
			s0.5,1.8,0.5,3c0,1.3-0.3,2.4-1,3.5s-1.6,2-2.8,2.6c-1.2,0.7-2.8,1-4.6,1c-0.9,0-1.9-0.1-2.8-0.3s-1.9-0.5-2.8-0.9
			c-0.9-0.4-1.8-0.9-2.7-1.5l2.1-3.8c0.6,0.4,1.2,0.8,1.9,1.1c0.7,0.3,1.4,0.6,2,0.8c0.7,0.2,1.3,0.3,1.9,0.3c0.6,0,1.2-0.1,1.7-0.3
			c0.6-0.2,1.1-0.5,1.5-0.9c0.4-0.4,0.6-1,0.6-1.7c0-0.5-0.2-1-0.5-1.4c-0.3-0.4-0.8-0.8-1.3-1.1c-0.5-0.3-1.1-0.6-1.8-0.9
			c-0.8-0.3-1.5-0.6-2.3-1c-0.8-0.4-1.5-0.9-2.2-1.4c-0.7-0.6-1.3-1.2-1.7-2.1c-0.4-0.8-0.6-1.8-0.6-3c0-1.5,0.3-2.7,0.9-3.8
			c0.6-1.1,1.5-1.9,2.7-2.5c1.2-0.6,2.5-1,4-1c2,0,3.6,0.2,4.8,0.7c1.2,0.5,2.3,1,3.3,1.7L153.5,104.5z"/>
		<path d="M159.8,98.5h16.7v4.8h-11.9v5.3h10.5v4.8h-10.5v5.4H177v4.8h-17.2V98.5z"/>
		<path d="M195.1,104.5c-0.9-0.5-1.9-1-2.8-1.3c-1-0.3-1.9-0.5-2.7-0.5c-1,0-1.9,0.2-2.5,0.6c-0.6,0.4-0.9,1.1-0.9,1.9
			c0,0.6,0.2,1.1,0.7,1.6s1,0.9,1.8,1.2c0.7,0.4,1.5,0.7,2.2,1c0.7,0.3,1.4,0.6,2.1,1s1.3,0.8,1.9,1.4c0.6,0.6,1,1.2,1.3,2.1
			s0.5,1.8,0.5,3c0,1.3-0.3,2.4-1,3.5s-1.6,2-2.8,2.6c-1.2,0.7-2.8,1-4.6,1c-0.9,0-1.9-0.1-2.8-0.3s-1.9-0.5-2.8-0.9
			c-0.9-0.4-1.8-0.9-2.7-1.5l2.1-3.8c0.6,0.4,1.2,0.8,1.9,1.1c0.7,0.3,1.4,0.6,2,0.8c0.7,0.2,1.3,0.3,1.9,0.3c0.6,0,1.2-0.1,1.7-0.3
			c0.6-0.2,1.1-0.5,1.5-0.9c0.4-0.4,0.6-1,0.6-1.7c0-0.5-0.2-1-0.5-1.4c-0.3-0.4-0.8-0.8-1.3-1.1c-0.5-0.3-1.1-0.6-1.8-0.9
			c-0.8-0.3-1.5-0.6-2.3-1c-0.8-0.4-1.5-0.9-2.2-1.4c-0.7-0.6-1.3-1.2-1.7-2.1c-0.4-0.8-0.6-1.8-0.6-3c0-1.5,0.3-2.7,0.9-3.8
			c0.6-1.1,1.5-1.9,2.7-2.5c1.2-0.6,2.5-1,4-1c2,0,3.6,0.2,4.8,0.7c1.2,0.5,2.3,1,3.3,1.7L195.1,104.5z"/>
		<path d="M214.5,104.5c-0.9-0.5-1.9-1-2.8-1.3c-1-0.3-1.9-0.5-2.7-0.5c-1,0-1.9,0.2-2.5,0.6c-0.6,0.4-0.9,1.1-0.9,1.9
			c0,0.6,0.2,1.1,0.7,1.6s1,0.9,1.8,1.2c0.7,0.4,1.5,0.7,2.2,1c0.7,0.3,1.4,0.6,2.1,1s1.3,0.8,1.9,1.4c0.6,0.6,1,1.2,1.3,2.1
			s0.5,1.8,0.5,3c0,1.3-0.3,2.4-1,3.5s-1.6,2-2.8,2.6c-1.2,0.7-2.8,1-4.6,1c-0.9,0-1.9-0.1-2.8-0.3s-1.9-0.5-2.8-0.9
			c-0.9-0.4-1.8-0.9-2.7-1.5l2.1-3.8c0.6,0.4,1.2,0.8,1.9,1.1c0.7,0.3,1.4,0.6,2,0.8c0.7,0.2,1.3,0.3,1.9,0.3c0.6,0,1.2-0.1,1.7-0.3
			c0.6-0.2,1.1-0.5,1.5-0.9c0.4-0.4,0.6-1,0.6-1.7c0-0.5-0.2-1-0.5-1.4c-0.3-0.4-0.8-0.8-1.3-1.1c-0.5-0.3-1.1-0.6-1.8-0.9
			c-0.8-0.3-1.5-0.6-2.3-1c-0.8-0.4-1.5-0.9-2.2-1.4c-0.7-0.6-1.3-1.2-1.7-2.1c-0.4-0.8-0.6-1.8-0.6-3c0-1.5,0.3-2.7,0.9-3.8
			c0.6-1.1,1.5-1.9,2.7-2.5c1.2-0.6,2.5-1,4-1c2,0,3.6,0.2,4.8,0.7c1.2,0.5,2.3,1,3.3,1.7L214.5,104.5z"/>
		<path d="M220.8,98.5h4.8v25h-4.8V98.5z"/>
		<path d="M230.4,111c0-1.7,0.3-3.4,1-4.9c0.6-1.5,1.5-2.9,2.7-4.1s2.5-2.1,4-2.8c1.5-0.7,3.1-1,4.9-1c1.7,0,3.3,0.3,4.8,1
			c1.5,0.7,2.8,1.6,4,2.8c1.2,1.2,2.1,2.6,2.7,4.1c0.7,1.5,1,3.2,1,4.9c0,1.8-0.3,3.4-1,5c-0.7,1.5-1.6,2.9-2.7,4.1
			c-1.2,1.2-2.5,2.1-4,2.7s-3.1,1-4.8,1c-1.7,0-3.4-0.3-4.9-1c-1.5-0.7-2.8-1.6-4-2.7c-1.1-1.2-2-2.5-2.7-4.1
			C230.8,114.5,230.4,112.8,230.4,111z M235.4,111c0,1.1,0.2,2.1,0.6,3.1c0.4,1,0.9,1.8,1.6,2.5c0.7,0.7,1.5,1.3,2.4,1.7
			c0.9,0.4,1.9,0.6,3,0.6c1,0,2-0.2,2.9-0.6c0.9-0.4,1.7-1,2.3-1.7c0.7-0.7,1.2-1.6,1.6-2.5c0.4-1,0.6-2,0.6-3.1
			c0-1.1-0.2-2.2-0.6-3.2s-0.9-1.8-1.6-2.6c-0.7-0.7-1.5-1.3-2.4-1.7s-1.9-0.6-3-0.6s-2.1,0.2-3,0.6s-1.7,1-2.4,1.7
			c-0.7,0.7-1.2,1.6-1.6,2.6C235.6,108.8,235.4,109.9,235.4,111z"/>
		<path d="M282.3,124.5l-18.6-17.1l1.4,0.8l0.1,15.3h-4.9v-26h0.2l18.2,17.1l-1.1-0.5l-0.1-15.6h4.9v26H282.3z"/>
		<path d="M298.2,123.5c1.4-1.4,2.7-2.8,4-4.1c1.3-1.3,2.4-2.6,3.4-3.8s1.8-2.4,2.4-3.6s0.9-2.3,0.9-3.4c0-0.5-0.1-0.9-0.2-1.3
			c-0.2-0.4-0.4-0.7-0.7-1c-0.3-0.3-0.7-0.5-1.1-0.6c-0.4-0.1-0.9-0.2-1.4-0.2s-1,0.1-1.4,0.2c-0.4,0.1-0.7,0.3-1,0.6
			c-0.3,0.2-0.5,0.5-0.6,0.8c-0.1,0.3-0.2,0.6-0.2,0.9c0,0.7,0.1,1.4,0.3,1.9c0.2,0.6,0.5,1,0.9,1.5l-3,2.8
			c-0.6-0.3-1.2-0.9-1.6-1.6c-0.5-0.7-0.8-1.5-1-2.4c-0.2-0.8-0.3-1.5-0.3-2.1c0-1.2,0.3-2.4,1-3.6s1.7-2.1,3-2.8
			c1.3-0.7,2.9-1.1,4.7-1.1c1.5,0,2.9,0.4,4,1.1c1.1,0.7,2,1.6,2.6,2.8s0.9,2.4,0.9,3.7c0,1-0.2,2-0.5,3c-0.3,1-0.7,1.9-1.3,2.8
			c-0.5,0.9-1.2,1.8-1.8,2.7c-0.7,0.9-1.4,1.8-2.1,2.7l-2.2-0.6h8.2v4.8H298.2z"/>
	</g>
</g>
</svg>
